<?xml version="1.0" encoding="utf-8"?>
<!-- Generator: Adobe Illustrator 19.2.1, SVG Export Plug-In . SVG Version: 6.00 Build 0)  -->
<svg width="60mm" height="50mm" version="1.1" id="layer" xmlns="http://www.w3.org/2000/svg" xmlns:xlink="http://www.w3.org/1999/xlink" x="0px" y="0px"
	 viewBox="0 0 652 652" style="enable-background:new 0 0 652 652;" xml:space="preserve">
<style type="text/css">
	.st0{fill:#000101;}
	.st1{fill:#FFDB00;}
	.st2{fill:#FFFFFF;}
</style>
<g>
	<path class="st0" d="M626.8,374.2c0,5.1-4.1,9.2-9.2,9.2H36c-5.1,0-9.2-4.2-9.2-9.2v-96.3c0-5.1,4.1-9.2,9.2-9.2h581.5
		c5.1,0,9.2,4.2,9.2,9.2V374.2z"/>
</g>
<polygon class="st1" points="46.6,283.1 60.2,283.1 63.4,307.1 63.5,307.1 67.1,283.1 82.7,283.1 86.2,307.1 86.4,307.1 89.6,283.1 
	103.1,283.1 94.9,321.3 78.5,321.3 74.9,296.5 74.8,296.5 71.3,321.3 54.9,321.3 "/>
<polygon class="st1" points="112,283.1 141,283.1 141,293 126.5,293 126.5,297.1 139.9,297.1 139.9,307 126.5,307 126.5,311.3 
	141.5,311.3 141.5,321.3 112,321.3 "/>
<g>
	<path class="st1" d="M172,293.9c0-2.4-1.4-3.2-3.3-3.2c-2.4,0-3.5,1.1-3.5,2.2c0,1.4,0.9,1.9,2.5,2.4c2.9,0.8,8.3,1.9,12.1,3.5
		c4.8,2,6.9,5.5,6.9,10.1c0,9.4-7.6,13.3-18.4,13.3c-9.2,0-17.7-2.9-17.7-12.8h14.5c0,1.1,0.2,2.1,0.8,2.9c0.6,0.7,1.5,1.2,3,1.2
		c2.2,0,3.7-1.4,3.7-3.1c0-1.4-1.1-2.2-2.5-2.6l-10.8-3.2c-5.9-1.8-7.9-5.3-7.9-10.2c0-8,6.4-12.5,17.6-12.5c9.5,0,16.7,3,16.7,11.9
		H172z"/>
	<polygon class="st1" points="204.4,293.3 194.9,293.3 194.9,283.1 228.9,283.1 228.9,293.3 219.5,293.3 219.5,321.3 204.4,321.3 	
		"/>
	<polygon class="st1" points="238.8,283.1 267.8,283.1 267.8,293 253.3,293 253.3,297.1 266.7,297.1 266.7,307 253.3,307 
		253.3,311.3 268.3,311.3 268.3,321.3 238.8,321.3 	"/>
	<path class="st1" d="M279.1,283.1h22.6c8.2,0,13,2.5,13,9.7c0,4.4-1.9,7.7-7.6,9.1v0.1c3.7,0.3,5.7,1.9,6.5,4.9
		c0.8,3.3,0.7,8.7,2.5,14.4h-14.8c-0.9-2.9-1.4-7.7-1.9-10.9c-0.3-1.9-1.3-2.6-3.7-2.6h-1.7v13.6h-14.8V283.1z M295.2,299
		c2.9,0,5-1,5-3.9c0-2.8-2-3.4-4.9-3.4h-1.4v7.2H295.2z"/>
	<polygon class="st1" points="326.2,283.1 344.3,283.1 352.4,306.2 352.5,306.2 352.5,283.1 364.8,283.1 364.8,321.3 346.7,321.3 
		338.6,298 338.5,298 338.5,321.3 326.2,321.3 	"/>
	<path class="st1" d="M186.4,354.2c0,9.2-6.6,13.8-18.1,13.8c-11.5,0-18.1-4.6-18.1-13.8v-25.4h15.1v24.8c0,3,1.4,4.2,3,4.2
		c1.6,0,3-1.2,3-4.2v-24.8h15.1V354.2z"/>
	<polygon class="st1" points="198.5,328.8 216.7,328.8 224.8,352 224.9,352 224.9,328.8 237.2,328.8 237.2,367 219,367 210.9,343.7 
		210.8,343.7 210.8,367 198.5,367 	"/>
	<rect x="249.6" y="328.8" class="st1" width="15.1" height="38.2"/>
	<path class="st1" d="M295.4,327.8c13.2,0,19.7,8.2,19.7,20.1c0,11.9-6.6,20.1-19.7,20.1c-13.2,0-19.7-8.2-19.7-20.1
		C275.7,336,282.2,327.8,295.4,327.8 M295.4,358.1c2.3,0,4.1-1.3,4.1-10.2c0-8.6-1.6-10.2-4.1-10.2c-2.4,0-4.1,1.5-4.1,10.2
		C291.3,356.8,293.1,358.1,295.4,358.1"/>
	<polygon class="st1" points="326.2,328.8 344.3,328.8 352.4,352 352.5,352 352.5,328.8 364.8,328.8 364.8,367 346.7,367 
		338.6,343.7 338.5,343.7 338.5,367 326.2,367 	"/>
	<path class="st1" d="M507.2,282.5h-6.4l-7.2,53.6h-0.2l-7.9-53.6h-34.9l-7.9,53.6h-0.2l-7.2-53.6H405l18.4,85.2H460l7.9-55.2h0.2
		l7.9,55.2h36.6l1.8-8.5c-4.7-5-7.2-11.6-7.2-20.1V282.5z"/>
	<path class="st2" d="M507.2,282.5v56.6c0,8.4,2.5,15.1,7.2,20.1l16.6-76.7H507.2z"/>
	<path class="st1" d="M554.5,282.5v55.2c0,6.7-3.2,9.3-6.7,9.3c-3.5,0-6.7-2.6-6.7-9.3v-55.2h-7.2l-17,78.8
		c6.9,5.7,17.3,8.7,30.9,8.7c25.7,0,40.5-10.3,40.5-30.8v-56.6H554.5z"/>
	<polygon class="st1" points="382.8,282.5 377.8,282.5 395.9,367.7 400.9,367.7 	"/>
	<polygon class="st1" points="409.6,367.7 414.6,367.7 396.5,282.5 391.5,282.5 	"/>
	<path class="st1" d="M598.4,286.6c0-0.6-0.3-0.8-0.9-0.8c-0.4,0-0.9,0.2-0.9,0.7c0,0.6,0.5,0.7,1,0.8c0.8,0.2,2.1,0.5,2.1,1.6
		c0,1.4-1.2,1.9-2.4,1.9c-1.3,0-2.2-0.5-2.2-1.9h1.2c0,0.6,0.3,1,0.9,1c0.5,0,1.1-0.1,1.1-0.7c0-0.7-0.8-0.7-1.3-0.8
		c-0.8-0.2-1.9-0.5-1.9-1.6c0-1.3,1.2-1.9,2.4-1.9c1.1,0,1.9,0.6,1.9,1.7H598.4z"/>
	<polygon class="st1" points="604.2,290.6 603.2,290.6 601.7,285.8 601.7,285.8 601.7,290.6 600.5,290.6 600.5,285 602.5,285 
		603.7,289.1 605,285 606.9,285 606.9,290.6 605.8,290.6 605.8,285.8 605.8,285.8 	"/>
</g>
</svg>
