<?xml version="1.0" encoding="UTF-8"?>
<!DOCTYPE svg PUBLIC "-//W3C//DTD SVG 1.1//EN" "http://www.w3.org/Graphics/SVG/1.1/DTD/svg11.dtd">
<svg xmlns="http://www.w3.org/2000/svg" version="1.1" width="512px" height="512px" style="shape-rendering:geometricPrecision; text-rendering:geometricPrecision; image-rendering:optimizeQuality; fill-rule:evenodd; clip-rule:evenodd" xmlns:xlink="http://www.w3.org/1999/xlink">
<g><path style="opacity:0.925" fill="#000000" d="M -0.5,278.5 C -0.5,267.833 -0.5,257.167 -0.5,246.5C 3.83097,219.335 15.331,195.669 34,175.5C 63.5278,145.639 93.3612,116.139 123.5,87C 138.651,79.5388 152.485,81.3721 165,92.5C 167.527,96.2211 169.527,100.221 171,104.5C 189.833,85.6667 208.667,66.8333 227.5,48C 243.888,37.3155 259.055,38.8155 273,52.5C 275.269,56.0383 277.269,59.705 279,63.5C 291.906,55.3627 304.74,55.5294 317.5,64C 327.078,72.7973 330.578,83.6306 328,96.5C 327.097,100.805 325.263,104.639 322.5,108C 342.29,115.751 349.124,129.917 343,150.5C 341.92,152.996 340.586,155.33 339,157.5C 328.167,168.333 317.333,179.167 306.5,190C 323.36,196.882 330.527,209.382 328,227.5C 326.81,232.213 324.81,236.547 322,240.5C 283.167,279.333 244.333,318.167 205.5,357C 166.196,388.217 122.863,395.217 75.5,378C 32.659,358.129 7.3257,324.962 -0.5,278.5 Z M 246.5,56.5 C 260.82,58.8099 265.653,66.8099 261,80.5C 225.667,115.833 190.333,151.167 155,186.5C 153.517,189.702 153.183,193.036 154,196.5C 158.833,201.333 163.667,206.167 168.5,211C 177.789,213.29 181.622,209.79 180,200.5C 177.872,197.37 175.372,194.537 172.5,192C 210.833,153.667 249.167,115.333 287.5,77C 297.932,70.8204 306.099,72.9871 312,83.5C 313.041,88.4398 312.374,93.1065 310,97.5C 269.333,138.167 228.667,178.833 188,219.5C 186.517,222.702 186.183,226.036 187,229.5C 191.833,234.333 196.667,239.167 201.5,244C 210.789,246.29 214.622,242.79 213,233.5C 210.872,230.37 208.372,227.537 205.5,225C 238.5,192 271.5,159 304.5,126C 314.492,120.443 322.326,122.609 328,132.5C 330.063,137.855 329.396,142.855 326,147.5C 290.667,182.833 255.333,218.167 220,253.5C 219.333,256.5 219.333,259.5 220,262.5C 224.833,267.333 229.667,272.167 234.5,277C 243.496,279.001 247.329,275.501 246,266.5C 243.872,263.37 241.372,260.537 238.5,258C 255.167,241.333 271.833,224.667 288.5,208C 296.582,203.823 303.749,204.989 310,211.5C 313.333,217.5 313.333,223.5 310,229.5C 271.833,267.667 233.667,305.833 195.5,344C 156.356,375.052 114.356,379.386 69.5,357C 29.3616,331.554 11.5283,295.054 16,247.5C 19.9758,223.548 30.3091,202.882 47,185.5C 75.5279,156.638 104.361,128.138 133.5,100C 146.285,95.9727 153.952,100.473 156.5,113.5C 156.17,116.324 155.336,118.991 154,121.5C 135,140.5 116,159.5 97,178.5C 89.5474,188.081 87.5474,198.748 91,210.5C 96.6667,224.167 102.333,237.833 108,251.5C 114.89,275.942 109.556,297.275 92,315.5C 89.1667,326 93,329.833 103.5,327C 125.76,303.72 132.26,276.554 123,245.5C 117.333,231.5 111.667,217.5 106,203.5C 105.262,199.739 105.595,196.072 107,192.5C 150.139,148.361 193.639,104.528 237.5,61C 240.324,58.9212 243.324,57.4212 246.5,56.5 Z"/></g>
<g><path style="opacity:0.939" fill="#000000" d="M 280.5,303.5 C 289.975,302.989 299.309,303.822 308.5,306C 320.488,313.605 323.488,323.938 317.5,337C 327.047,346.731 328.547,357.564 322,369.5C 319.104,373.061 315.604,375.894 311.5,378C 300.239,379.6 288.906,379.933 277.5,379C 276.333,377.833 275.167,376.667 274,375.5C 273.333,353.167 273.333,330.833 274,308.5C 275.603,305.965 277.769,304.298 280.5,303.5 Z M 289.5,319.5 C 292.85,319.335 296.183,319.502 299.5,320C 305.19,322.782 305.857,326.449 301.5,331C 297.514,331.499 293.514,331.666 289.5,331.5C 289.5,327.5 289.5,323.5 289.5,319.5 Z M 289.5,347.5 C 294.511,347.334 299.511,347.501 304.5,348C 311.445,352.752 311.779,357.752 305.5,363C 300.177,363.499 294.844,363.666 289.5,363.5C 289.5,358.167 289.5,352.833 289.5,347.5 Z"/></g>
<g><path style="opacity:0.922" fill="#000000" d="M 333.5,303.5 C 335.781,304.207 337.948,305.207 340,306.5C 344.333,313.167 348.667,319.833 353,326.5C 357.442,319.06 362.275,311.894 367.5,305C 379.218,303.907 382.384,308.74 377,319.5C 371.667,327.5 366.333,335.5 361,343.5C 360.667,354.167 360.333,364.833 360,375.5C 359.5,377.333 358.333,378.5 356.5,379C 352.409,380.227 348.909,379.394 346,376.5C 344.733,365.238 344.066,353.905 344,342.5C 338,333.167 332,323.833 326,314.5C 325.192,308.488 327.692,304.822 333.5,303.5 Z"/></g>
<g><path style="opacity:0.927" fill="#000000" d="M 391.5,304.5 C 402.505,304.333 413.505,304.5 424.5,305C 430.446,309.274 430.779,313.941 425.5,319C 418.254,320.391 410.921,320.891 403.5,320.5C 403.5,325.167 403.5,329.833 403.5,334.5C 410.175,334.334 416.842,334.5 423.5,335C 428.684,339.708 428.684,344.375 423.5,349C 416.924,350.377 410.257,350.877 403.5,350.5C 403.5,355.167 403.5,359.833 403.5,364.5C 410.508,364.334 417.508,364.5 424.5,365C 427.581,366.312 429.248,368.645 429.5,372C 428.949,376.218 426.616,378.884 422.5,380C 413.167,380.667 403.833,380.667 394.5,380C 392.152,379.654 390.319,378.487 389,376.5C 387.355,354.255 387.022,331.922 388,309.5C 388.997,307.677 390.164,306.01 391.5,304.5 Z"/></g>
<g><path style="opacity:0.933" fill="#000000" d="M 336.5,393.5 C 344.88,393.262 353.213,393.762 361.5,395C 375.25,401.748 379.25,412.248 373.5,426.5C 382.621,436.99 383.787,448.323 377,460.5C 374.408,463.762 371.241,466.262 367.5,468C 356.239,469.6 344.906,469.933 333.5,469C 332.069,468.535 330.903,467.701 330,466.5C 328.378,444.884 328.045,423.217 329,401.5C 329.68,396.989 332.18,394.323 336.5,393.5 Z M 344.5,409.5 C 348.936,409.21 353.27,409.71 357.5,411C 361.311,414.723 360.977,418.056 356.5,421C 352.514,421.499 348.514,421.666 344.5,421.5C 344.5,417.5 344.5,413.5 344.5,409.5 Z M 344.5,437.5 C 349.511,437.334 354.511,437.501 359.5,438C 366.977,442.67 367.311,447.67 360.5,453C 355.177,453.499 349.844,453.666 344.5,453.5C 344.5,448.167 344.5,442.833 344.5,437.5 Z"/></g>
<g><path style="opacity:0.923" fill="#000000" d="M 388.5,393.5 C 392.111,393.786 394.944,395.452 397,398.5C 400.351,404.55 404.185,410.216 408.5,415.5C 413.133,408.4 418.133,401.567 423.5,395C 435.464,394.746 438.297,399.912 432,410.5C 426.751,417.996 421.751,425.663 417,433.5C 416.667,443.833 416.333,454.167 416,464.5C 413.565,469.224 409.731,470.724 404.5,469C 403,468.167 401.833,467 401,465.5C 400.667,454.833 400.333,444.167 400,433.5C 394,424.167 388,414.833 382,405.5C 380.305,399.213 382.472,395.213 388.5,393.5 Z"/></g>
<g><path style="opacity:0.933" fill="#000000" d="M 447.5,394.5 C 458.505,394.333 469.505,394.5 480.5,395C 485.812,399.761 485.812,404.428 480.5,409C 473.589,410.384 466.589,410.884 459.5,410.5C 459.5,415.167 459.5,419.833 459.5,424.5C 465.842,424.334 472.175,424.5 478.5,425C 481.366,426.393 482.699,428.726 482.5,432C 482.699,435.274 481.366,437.607 478.5,439C 472.258,440.37 465.925,440.87 459.5,440.5C 459.5,445.167 459.5,449.833 459.5,454.5C 466.508,454.334 473.508,454.5 480.5,455C 484.753,458.42 485.587,462.587 483,467.5C 481.352,468.717 479.519,469.55 477.5,470C 468.167,470.667 458.833,470.667 449.5,470C 447.671,469.727 446.171,468.893 445,467.5C 443.355,444.588 443.021,421.588 444,398.5C 444.69,396.65 445.856,395.316 447.5,394.5 Z"/></g>
<g><path style="opacity:0.963" fill="#000000" d="M 511.5,398.5 C 511.5,411.167 511.5,423.833 511.5,436.5C 506.656,441.728 501.823,441.728 497,436.5C 496.833,430.167 496.667,423.833 496.5,417.5C 496.369,410.399 496.869,403.399 498,396.5C 503.201,393.409 507.701,394.075 511.5,398.5 Z"/></g>
<g><path style="opacity:0.878" fill="#000000" d="M 511.5,458.5 C 511.5,461.167 511.5,463.833 511.5,466.5C 506.656,471.728 501.823,471.728 497,466.5C 494.71,457.211 498.21,453.378 507.5,455C 509.35,455.69 510.684,456.856 511.5,458.5 Z"/></g>
</svg>
